<svg width="3292" height="569" viewBox="0 0 3292 569" fill="none" xmlns="http://www.w3.org/2000/svg">
<path d="M288.648 397.744H284.04C277.896 410.544 269.32 420.016 258.312 426.16C247.56 432.304 236.168 435.376 224.136 435.376C211.592 435.376 199.944 433.328 189.192 429.232C178.44 424.88 168.968 418.608 160.776 410.416C152.84 401.968 146.568 391.728 141.96 379.696C137.352 367.664 135.048 353.712 135.048 337.84V331.696C135.048 316.08 137.352 302.256 141.96 290.224C146.568 278.192 152.84 268.08 160.776 259.888C168.968 251.44 178.44 245.04 189.192 240.688C199.944 236.336 211.336 234.16 223.368 234.16C236.424 234.16 248.2 237.104 258.696 242.992C269.448 248.624 277.896 257.456 284.04 269.488H288.648V239.536H318.6V390.832C318.6 398.512 322.056 402.352 328.968 402.352H338.568V430H318.216C309.512 430 302.344 427.184 296.712 421.552C291.336 415.92 288.648 408.752 288.648 400.048V397.744ZM227.208 406.96C236.168 406.96 244.36 405.296 251.784 401.968C259.464 398.64 265.992 393.904 271.368 387.76C276.744 381.616 280.968 374.32 284.04 365.872C287.112 357.168 288.648 347.568 288.648 337.072V332.464C288.648 322.224 287.112 312.88 284.04 304.432C280.968 295.728 276.616 288.304 270.984 282.16C265.608 276.016 259.08 271.28 251.4 267.952C243.976 264.368 235.912 262.576 227.208 262.576C218.248 262.576 210.056 264.24 202.632 267.568C195.208 270.896 188.68 275.632 183.048 281.776C177.672 287.664 173.448 294.96 170.376 303.664C167.304 312.112 165.768 321.456 165.768 331.696V337.84C165.768 359.6 171.4 376.624 182.664 388.912C194.184 400.944 209.032 406.96 227.208 406.96ZM1554.63 239.536H1614.53V161.2H1644.49V239.536H1718.21V267.184H1644.49V390.832C1644.49 398.512 1647.94 402.352 1654.85 402.352H1709V430H1644.1C1635.4 430 1628.23 427.184 1622.6 421.552C1617.22 415.92 1614.53 408.752 1614.53 400.048V267.184H1554.63V239.536Z" fill="#FF00AA"/>
<path d="M408.573 430H378.621V161.2H408.573V269.488H413.181C419.837 257.968 429.053 249.264 440.829 243.376C452.605 237.232 465.405 234.16 479.229 234.16C491.005 234.16 502.141 236.336 512.637 240.688C523.133 245.04 532.349 251.312 540.285 259.504C548.477 267.696 554.877 277.808 559.485 289.84C564.349 301.872 566.781 315.568 566.781 330.928V338.608C566.781 354.224 564.477 368.048 559.869 380.08C555.261 392.112 548.861 402.224 540.669 410.416C532.733 418.608 523.389 424.88 512.637 429.232C501.885 433.328 490.493 435.376 478.461 435.376C472.317 435.376 466.045 434.608 459.645 433.072C453.245 431.792 447.101 429.744 441.213 426.928C435.581 423.856 430.333 420.272 425.469 416.176C420.605 411.824 416.509 406.704 413.181 400.816H408.573V430ZM472.317 406.96C481.533 406.96 489.981 405.424 497.661 402.352C505.341 399.024 511.997 394.416 517.629 388.528C523.517 382.64 527.997 375.472 531.069 367.024C534.397 358.576 536.061 349.104 536.061 338.608V330.928C536.061 320.688 534.397 311.472 531.069 303.28C527.997 294.832 523.517 287.664 517.629 281.776C511.997 275.632 505.213 270.896 497.277 267.568C489.597 264.24 481.277 262.576 472.317 262.576C463.357 262.576 455.037 264.368 447.357 267.952C439.677 271.28 432.893 276.016 427.005 282.16C421.373 288.304 416.893 295.728 413.565 304.432C410.237 312.88 408.573 322.224 408.573 332.464V337.072C408.573 347.568 410.237 357.168 413.565 365.872C416.893 374.32 421.373 381.616 427.005 387.76C432.893 393.904 439.677 398.64 447.357 401.968C455.037 405.296 463.357 406.96 472.317 406.96ZM1084.38 239.536H1144.28V161.2H1174.24V239.536H1247.96V267.184H1174.24V390.832C1174.24 398.512 1177.69 402.352 1184.6 402.352H1238.75V430H1173.85C1165.15 430 1157.98 427.184 1152.35 421.552C1146.97 415.92 1144.28 408.752 1144.28 400.048V267.184H1084.38V239.536ZM1826.24 430H1796.28V161.2H1826.24V274.096H1830.84C1836.73 261.808 1844.92 252.08 1855.42 244.912C1866.17 237.744 1879.23 234.16 1894.59 234.16C1915.32 234.16 1932.09 241.072 1944.89 254.896C1957.95 268.464 1964.48 288.944 1964.48 316.336V430H1934.52V322.48C1934.52 302.512 1930.04 287.536 1921.08 277.552C1912.12 267.568 1899.96 262.576 1884.6 262.576C1866.43 262.576 1852.09 268.848 1841.6 281.392C1831.36 293.68 1826.24 310.192 1826.24 330.928V430ZM2260.01 239.536H2319.91V161.2H2349.86V239.536H2423.59V267.184H2349.86V390.832C2349.86 398.512 2353.32 402.352 2360.23 402.352H2414.37V430H2349.48C2340.77 430 2333.61 427.184 2327.97 421.552C2322.6 415.92 2319.91 408.752 2319.91 400.048V267.184H2260.01V239.536Z" fill="#00F0FF"/>
<path d="M800.37 337.072C800.37 352.944 797.682 367.024 792.306 379.312C787.186 391.344 780.274 401.584 771.57 410.032C762.866 418.224 752.626 424.496 740.85 428.848C729.33 433.2 717.298 435.376 704.754 435.376C691.954 435.376 679.794 433.2 668.274 428.848C656.754 424.496 646.642 418.224 637.938 410.032C629.234 401.584 622.194 391.344 616.818 379.312C611.698 367.024 609.138 352.944 609.138 337.072V332.464C609.138 316.848 611.698 303.024 616.818 290.992C622.194 278.704 629.234 268.336 637.938 259.888C646.898 251.44 657.138 245.04 668.658 240.688C680.178 236.336 692.21 234.16 704.754 234.16C717.298 234.16 729.33 236.336 740.85 240.688C752.37 245.04 762.482 251.44 771.186 259.888C780.146 268.336 787.186 278.704 792.306 290.992C797.682 303.024 800.37 316.848 800.37 332.464V337.072ZM704.754 406.96C713.97 406.96 722.418 405.424 730.098 402.352C738.034 399.024 744.946 394.288 750.834 388.144C756.722 382 761.33 374.704 764.658 366.256C767.986 357.552 769.65 347.824 769.65 337.072V332.464C769.65 322.224 767.986 312.88 764.658 304.432C761.33 295.728 756.722 288.304 750.834 282.16C744.946 276.016 738.034 271.28 730.098 267.952C722.162 264.368 713.714 262.576 704.754 262.576C695.794 262.576 687.346 264.368 679.41 267.952C671.474 271.28 664.562 276.016 658.674 282.16C652.786 288.304 648.178 295.728 644.85 304.432C641.522 312.88 639.858 322.224 639.858 332.464V337.072C639.858 347.824 641.522 357.552 644.85 366.256C648.178 374.704 652.786 382 658.674 388.144C664.562 394.288 671.346 399.024 679.026 402.352C686.962 405.424 695.538 406.96 704.754 406.96ZM991.719 239.536H1021.67V430H991.719V395.44H987.111C980.967 407.728 972.903 417.456 962.919 424.624C952.935 431.792 940.263 435.376 924.903 435.376C914.407 435.376 904.679 433.584 895.719 430C887.015 426.672 879.463 421.552 873.063 414.64C866.919 407.728 862.055 399.152 858.471 388.912C855.143 378.672 853.479 366.768 853.479 353.2V239.536H883.431V349.36C883.431 369.328 887.527 383.92 895.719 393.136C903.911 402.352 916.455 406.96 933.351 406.96C951.527 406.96 965.735 400.816 975.975 388.528C986.471 375.984 991.719 359.344 991.719 338.608V239.536ZM2169.65 397.744H2165.04C2158.9 410.544 2150.32 420.016 2139.31 426.16C2128.56 432.304 2117.17 435.376 2105.14 435.376C2092.59 435.376 2080.94 433.328 2070.19 429.232C2059.44 424.88 2049.97 418.608 2041.78 410.416C2033.84 401.968 2027.57 391.728 2022.96 379.696C2018.35 367.664 2016.05 353.712 2016.05 337.84V331.696C2016.05 316.08 2018.35 302.256 2022.96 290.224C2027.57 278.192 2033.84 268.08 2041.78 259.888C2049.97 251.44 2059.44 245.04 2070.19 240.688C2080.94 236.336 2092.34 234.16 2104.37 234.16C2117.42 234.16 2129.2 237.104 2139.7 242.992C2150.45 248.624 2158.9 257.456 2165.04 269.488H2169.65V239.536H2199.6V390.832C2199.6 398.512 2203.06 402.352 2209.97 402.352H2219.57V430H2199.22C2190.51 430 2183.34 427.184 2177.71 421.552C2172.34 415.92 2169.65 408.752 2169.65 400.048V397.744ZM2108.21 406.96C2117.17 406.96 2125.36 405.296 2132.78 401.968C2140.46 398.64 2146.99 393.904 2152.37 387.76C2157.74 381.616 2161.97 374.32 2165.04 365.872C2168.11 357.168 2169.65 347.568 2169.65 337.072V332.464C2169.65 322.224 2168.11 312.88 2165.04 304.432C2161.97 295.728 2157.62 288.304 2151.98 282.16C2146.61 276.016 2140.08 271.28 2132.4 267.952C2124.98 264.368 2116.91 262.576 2108.21 262.576C2099.25 262.576 2091.06 264.24 2083.63 267.568C2076.21 270.896 2069.68 275.632 2064.05 281.776C2058.67 287.664 2054.45 294.96 2051.38 303.664C2048.3 312.112 2046.77 321.456 2046.77 331.696V337.84C2046.77 359.6 2052.4 376.624 2063.66 388.912C2075.18 400.944 2090.03 406.96 2108.21 406.96ZM2558.87 408.496C2558.87 401.072 2561.43 394.8 2566.55 389.68C2571.93 384.304 2578.33 381.616 2585.75 381.616C2593.18 381.616 2599.45 384.304 2604.57 389.68C2609.95 394.8 2612.63 401.072 2612.63 408.496C2612.63 415.92 2609.95 422.32 2604.57 427.696C2599.45 432.816 2593.18 435.376 2585.75 435.376C2578.33 435.376 2571.93 432.816 2566.55 427.696C2561.43 422.32 2558.87 415.92 2558.87 408.496ZM2794 408.496C2794 401.072 2796.56 394.8 2801.68 389.68C2807.06 384.304 2813.46 381.616 2820.88 381.616C2828.3 381.616 2834.58 384.304 2839.7 389.68C2845.07 394.8 2847.76 401.072 2847.76 408.496C2847.76 415.92 2845.07 422.32 2839.7 427.696C2834.58 432.816 2828.3 435.376 2820.88 435.376C2813.46 435.376 2807.06 432.816 2801.68 427.696C2796.56 422.32 2794 415.92 2794 408.496ZM3029.12 408.496C3029.12 401.072 3031.68 394.8 3036.8 389.68C3042.18 384.304 3048.58 381.616 3056 381.616C3063.43 381.616 3069.7 384.304 3074.82 389.68C3080.2 394.8 3082.88 401.072 3082.88 408.496C3082.88 415.92 3080.2 422.32 3074.82 427.696C3069.7 432.816 3063.43 435.376 3056 435.376C3048.58 435.376 3042.18 432.816 3036.8 427.696C3031.68 422.32 3029.12 415.92 3029.12 408.496Z" fill="#F0FF00"/>
</svg>
