<svg width="3292" height="569" viewBox="0 0 3292 569" fill="none" xmlns="http://www.w3.org/2000/svg">
<path d="M31.488 329.464H90.24V377.848C90.24 386.552 92.928 393.72 98.304 399.352C103.936 404.984 111.104 407.8 119.808 407.8H195.072V380.152H130.56C123.648 380.152 120.192 376.312 120.192 368.632V329.464H199.68V301.816H120.192V139H90.24V301.816H31.488V329.464ZM1207.88 407.8H1378.38V377.848H1309.26V168.952H1378.38V139H1207.88V168.952H1277V377.848H1207.88V407.8Z" fill="#D4AAC6"/>
<path d="M290.421 225.016C291.189 206.072 297.077 190.84 308.085 179.32C319.093 167.8 334.453 162.04 354.165 162.04C363.125 162.04 370.933 163.064 377.589 165.112C384.245 167.16 389.877 169.976 394.485 173.56C399.349 177.144 403.189 181.24 406.005 185.848C409.077 190.712 411.509 195.832 413.301 201.208L441.717 193.528C436.341 175.864 426.357 161.4 411.765 150.136C397.429 139.128 377.973 133.624 353.397 133.624C339.829 133.624 327.285 135.928 315.765 140.536C304.501 145.4 294.773 152.184 286.581 160.888C278.389 169.592 271.989 179.96 267.381 191.992C262.773 204.024 260.469 217.336 260.469 231.928V241.144C260.469 254.456 262.773 266.872 267.381 278.392C272.245 289.912 278.901 299.768 287.349 307.96C295.797 316.408 305.653 322.936 316.917 327.544C328.437 332.408 340.853 334.84 354.165 334.84C369.781 334.84 383.221 331.896 394.485 326.008C406.005 320.376 415.349 313.336 422.517 304.888C429.941 296.44 435.317 287.224 438.645 277.24C442.229 267.256 444.021 258.04 444.021 249.592V225.016H290.421ZM354.165 306.424C345.717 306.424 337.781 305.016 330.357 302.2C323.189 299.64 316.789 295.928 311.157 291.064C305.781 286.2 301.301 280.44 297.717 273.784C294.389 267.384 292.213 260.344 291.189 252.664H414.069C413.557 260.856 411.509 268.28 407.925 274.936C404.597 281.592 400.117 287.224 394.485 291.832C389.109 296.44 382.837 300.024 375.669 302.584C368.757 305.144 361.589 306.424 354.165 306.424ZM525.546 225.016C526.314 206.072 532.202 190.84 543.21 179.32C554.218 167.8 569.578 162.04 589.29 162.04C598.25 162.04 606.058 163.064 612.714 165.112C619.37 167.16 625.002 169.976 629.61 173.56C634.474 177.144 638.314 181.24 641.13 185.848C644.202 190.712 646.634 195.832 648.426 201.208L676.842 193.528C671.466 175.864 661.482 161.4 646.89 150.136C632.554 139.128 613.098 133.624 588.522 133.624C574.954 133.624 562.41 135.928 550.89 140.536C539.626 145.4 529.898 152.184 521.706 160.888C513.514 169.592 507.114 179.96 502.506 191.992C497.898 204.024 495.594 217.336 495.594 231.928V241.144C495.594 254.456 497.898 266.872 502.506 278.392C507.37 289.912 514.026 299.768 522.474 307.96C530.922 316.408 540.778 322.936 552.042 327.544C563.562 332.408 575.978 334.84 589.29 334.84C604.906 334.84 618.346 331.896 629.61 326.008C641.13 320.376 650.474 313.336 657.642 304.888C665.066 296.44 670.442 287.224 673.77 277.24C677.354 267.256 679.146 258.04 679.146 249.592V225.016H525.546ZM589.29 306.424C580.842 306.424 572.906 305.016 565.482 302.2C558.314 299.64 551.914 295.928 546.282 291.064C540.906 286.2 536.426 280.44 532.842 273.784C529.514 267.384 527.338 260.344 526.314 252.664H649.194C648.682 260.856 646.634 268.28 643.05 274.936C639.722 281.592 635.242 287.224 629.61 291.832C624.234 296.44 617.962 300.024 610.794 302.584C603.882 305.144 596.714 306.424 589.29 306.424ZM2050.34 329.464H2080.3V139H2050.34V173.56H2045.74C2039.59 161.272 2031.53 151.544 2021.54 144.376C2011.56 137.208 1998.89 133.624 1983.53 133.624C1973.03 133.624 1963.3 135.416 1954.34 139C1945.64 142.328 1938.09 147.448 1931.69 154.36C1925.54 161.272 1920.68 169.848 1917.1 180.088C1913.77 190.328 1912.1 202.232 1912.1 215.8V329.464H1942.06V219.64C1942.06 199.672 1946.15 185.08 1954.34 175.864C1962.54 166.648 1975.08 162.04 1991.98 162.04C2010.15 162.04 2024.36 168.184 2034.6 180.472C2045.1 193.016 2050.34 209.656 2050.34 230.392V329.464ZM2522.9 171.256H2518.29C2512.15 158.456 2503.57 148.984 2492.56 142.84C2481.81 136.696 2470.42 133.624 2458.39 133.624C2445.84 133.624 2434.19 135.672 2423.44 139.768C2412.69 144.12 2403.22 150.392 2395.03 158.584C2387.09 167.032 2380.82 177.272 2376.21 189.304C2371.6 201.336 2369.3 215.288 2369.3 231.16V237.304C2369.3 252.92 2371.6 266.744 2376.21 278.776C2380.82 290.808 2387.09 300.92 2395.03 309.112C2403.22 317.56 2412.69 323.96 2423.44 328.312C2434.19 332.664 2445.59 334.84 2457.62 334.84C2470.67 334.84 2482.45 331.896 2492.95 326.008C2503.7 320.376 2512.15 311.544 2518.29 299.512H2522.9V329.464H2552.85V178.168C2552.85 170.488 2556.31 166.648 2563.22 166.648H2572.82V139H2552.47C2543.76 139 2536.59 141.816 2530.96 147.448C2525.59 153.08 2522.9 160.248 2522.9 168.952V171.256ZM2461.46 162.04C2470.42 162.04 2478.61 163.704 2486.03 167.032C2493.71 170.36 2500.24 175.096 2505.62 181.24C2510.99 187.384 2515.22 194.68 2518.29 203.128C2521.36 211.832 2522.9 221.432 2522.9 231.928V236.536C2522.9 246.776 2521.36 256.12 2518.29 264.568C2515.22 273.272 2510.87 280.696 2505.23 286.84C2499.86 292.984 2493.33 297.72 2485.65 301.048C2478.23 304.632 2470.16 306.424 2461.46 306.424C2452.5 306.424 2444.31 304.76 2436.88 301.432C2429.46 298.104 2422.93 293.368 2417.3 287.224C2411.92 281.336 2407.7 274.04 2404.63 265.336C2401.55 256.888 2400.02 247.544 2400.02 237.304V231.16C2400.02 209.4 2405.65 192.376 2416.91 180.088C2428.43 168.056 2443.28 162.04 2461.46 162.04ZM3034.62 231.928C3034.62 216.056 3031.93 201.976 3026.56 189.688C3021.44 177.656 3014.52 167.416 3005.82 158.968C2997.12 150.776 2986.88 144.504 2975.1 140.152C2963.58 135.8 2951.55 133.624 2939 133.624C2926.2 133.624 2914.04 135.8 2902.52 140.152C2891 144.504 2880.89 150.776 2872.19 158.968C2863.48 167.416 2856.44 177.656 2851.07 189.688C2845.95 201.976 2843.39 216.056 2843.39 231.928V236.536C2843.39 252.152 2845.95 265.976 2851.07 278.008C2856.44 290.296 2863.48 300.664 2872.19 309.112C2881.15 317.56 2891.39 323.96 2902.91 328.312C2914.43 332.664 2926.46 334.84 2939 334.84C2951.55 334.84 2963.58 332.664 2975.1 328.312C2986.62 323.96 2996.73 317.56 3005.44 309.112C3014.4 300.664 3021.44 290.296 3026.56 278.008C3031.93 265.976 3034.62 252.152 3034.62 236.536V231.928ZM2939 162.04C2948.22 162.04 2956.67 163.576 2964.35 166.648C2972.28 169.976 2979.2 174.712 2985.08 180.856C2990.97 187 2995.58 194.296 2998.91 202.744C3002.24 211.448 3003.9 221.176 3003.9 231.928V236.536C3003.9 246.776 3002.24 256.12 2998.91 264.568C2995.58 273.272 2990.97 280.696 2985.08 286.84C2979.2 292.984 2972.28 297.72 2964.35 301.048C2956.41 304.632 2947.96 306.424 2939 306.424C2930.04 306.424 2921.6 304.632 2913.66 301.048C2905.72 297.72 2898.81 292.984 2892.92 286.84C2887.04 280.696 2882.43 273.272 2879.1 264.568C2875.77 256.12 2874.11 246.776 2874.11 236.536V231.928C2874.11 221.176 2875.77 211.448 2879.1 202.744C2882.43 194.296 2887.04 187 2892.92 180.856C2898.81 174.712 2905.6 169.976 2913.28 166.648C2921.21 163.576 2929.79 162.04 2939 162.04Z" fill="#B0B382"/>
<path d="M738.783 166.648H807.903V380.152H741.087V407.8H837.855V166.648H906.975V139H738.783V166.648ZM1013.46 280.312C1013.46 271.096 1017.3 264.056 1024.98 259.192C1032.92 254.328 1047.25 251.128 1067.99 249.592C1090.26 247.8 1107.16 242.424 1118.68 233.464C1130.45 224.76 1136.34 211.96 1136.34 195.064V192.76C1136.34 183.544 1134.42 175.224 1130.58 167.8C1127 160.632 1121.88 154.488 1115.22 149.368C1108.82 144.248 1100.88 140.408 1091.41 137.848C1082.2 135.032 1072.08 133.624 1061.08 133.624C1046.23 133.624 1033.43 135.544 1022.68 139.384C1012.18 143.48 1003.35 148.728 996.18 155.128C989.268 161.784 984.02 169.208 980.436 177.4C976.852 185.848 974.804 194.296 974.292 202.744L1002.71 209.656C1003.99 195.064 1009.62 183.288 1019.6 174.328C1029.59 165.624 1042.9 161.272 1059.54 161.272C1073.62 161.272 1084.88 163.96 1093.33 169.336C1102.04 174.968 1106.39 182.776 1106.39 192.76C1106.39 203.512 1102.16 211.192 1093.72 215.8C1085.27 220.408 1071.57 223.352 1052.63 224.632C1030.61 226.168 1013.72 231.288 1001.94 239.992C990.164 248.696 984.276 261.368 984.276 278.008V280.312C984.276 289.272 986.196 297.08 990.036 303.736C993.876 310.648 998.996 316.408 1005.4 321.016C1012.05 325.624 1019.48 329.08 1027.67 331.384C1035.86 333.688 1044.44 334.84 1053.4 334.84C1065.94 334.84 1076.95 333.048 1086.42 329.464C1095.89 326.136 1103.83 321.656 1110.23 316.024C1116.63 310.648 1121.49 304.376 1124.82 297.208C1128.4 290.04 1130.71 282.872 1131.73 275.704L1103.32 268.792C1102.04 281.08 1097.04 290.68 1088.34 297.592C1079.89 304.504 1068.76 307.96 1054.93 307.96C1049.56 307.96 1044.31 307.32 1039.19 306.04C1034.32 305.016 1029.97 303.352 1026.13 301.048C1022.29 298.744 1019.22 295.8 1016.92 292.216C1014.61 288.888 1013.46 284.92 1013.46 280.312ZM1474.11 139H1444.16V329.464H1474.11V297.208H1478.72C1490.49 322.296 1510.97 334.84 1540.16 334.84C1562.17 334.84 1579.71 327.928 1592.77 314.104C1605.82 300.536 1612.35 280.056 1612.35 252.664V139H1582.4V246.52C1582.4 266.488 1577.92 281.464 1568.96 291.448C1560 301.432 1547.84 306.424 1532.48 306.424C1514.3 306.424 1499.97 300.152 1489.47 287.608C1479.23 275.32 1474.11 258.808 1474.11 238.072V139ZM1857.46 206.584C1855.41 196.088 1851.83 186.36 1846.71 177.4C1841.84 168.44 1835.57 160.632 1827.89 153.976C1820.21 147.576 1811.25 142.584 1801.01 139C1790.77 135.416 1779.38 133.624 1766.84 133.624C1753.52 133.624 1740.85 135.8 1728.82 140.152C1717.04 144.504 1706.68 150.776 1697.72 158.968C1688.76 167.416 1681.59 177.656 1676.21 189.688C1671.09 201.72 1668.53 215.544 1668.53 231.16V235.768C1668.53 251.128 1671.09 264.952 1676.21 277.24C1681.59 289.528 1688.76 299.896 1697.72 308.344C1706.68 316.792 1717.04 323.32 1728.82 327.928C1740.85 332.536 1753.52 334.84 1766.84 334.84C1778.87 334.84 1790 333.048 1800.24 329.464C1810.48 325.88 1819.44 320.76 1827.12 314.104C1835.06 307.704 1841.46 300.024 1846.32 291.064C1851.44 282.104 1854.9 272.376 1856.69 261.88L1826.74 254.968C1825.97 261.624 1824.05 268.024 1820.98 274.168C1818.16 280.568 1814.2 286.072 1809.08 290.68C1804.21 295.544 1798.2 299.384 1791.03 302.2C1783.86 305.016 1775.54 306.424 1766.07 306.424C1756.85 306.424 1748.15 304.632 1739.96 301.048C1732.02 297.72 1724.98 292.856 1718.84 286.456C1712.69 280.312 1707.83 272.888 1704.24 264.184C1700.92 255.48 1699.25 246.008 1699.25 235.768V231.16C1699.25 220.408 1700.92 210.68 1704.24 201.976C1707.83 193.528 1712.69 186.36 1718.84 180.472C1724.98 174.584 1732.15 169.976 1740.34 166.648C1748.53 163.576 1757.36 162.04 1766.84 162.04C1776.31 162.04 1784.5 163.448 1791.41 166.264C1798.58 169.336 1804.6 173.176 1809.46 177.784C1814.58 182.648 1818.55 188.152 1821.36 194.296C1824.44 200.44 1826.48 206.84 1827.51 213.496L1857.46 206.584ZM2172.57 139H2142.62V407.8H2172.57V299.512H2177.18C2183.84 311.032 2193.05 319.736 2204.83 325.624C2216.61 331.768 2229.41 334.84 2243.23 334.84C2255.01 334.84 2266.14 332.664 2276.64 328.312C2287.13 323.96 2296.35 317.688 2304.29 309.496C2312.48 301.304 2318.88 291.192 2323.49 279.16C2328.35 267.128 2330.78 253.432 2330.78 238.072V230.392C2330.78 214.776 2328.48 200.952 2323.87 188.92C2319.26 176.888 2312.86 166.776 2304.67 158.584C2296.73 150.392 2287.39 144.12 2276.64 139.768C2265.89 135.672 2254.49 133.624 2242.46 133.624C2236.32 133.624 2230.05 134.392 2223.65 135.928C2217.25 137.208 2211.1 139.256 2205.21 142.072C2199.58 145.144 2194.33 148.728 2189.47 152.824C2184.61 157.176 2180.51 162.296 2177.18 168.184H2172.57V139ZM2236.32 162.04C2245.53 162.04 2253.98 163.576 2261.66 166.648C2269.34 169.976 2276 174.584 2281.63 180.472C2287.52 186.36 2292 193.528 2295.07 201.976C2298.4 210.424 2300.06 219.896 2300.06 230.392V238.072C2300.06 248.312 2298.4 257.528 2295.07 265.72C2292 274.168 2287.52 281.336 2281.63 287.224C2276 293.368 2269.21 298.104 2261.28 301.432C2253.6 304.76 2245.28 306.424 2236.32 306.424C2227.36 306.424 2219.04 304.632 2211.36 301.048C2203.68 297.72 2196.89 292.984 2191.01 286.84C2185.37 280.696 2180.89 273.272 2177.57 264.568C2174.24 256.12 2172.57 246.776 2172.57 236.536V231.928C2172.57 221.432 2174.24 211.832 2177.57 203.128C2180.89 194.68 2185.37 187.384 2191.01 181.24C2196.89 175.096 2203.68 170.36 2211.36 167.032C2219.04 163.704 2227.36 162.04 2236.32 162.04ZM2613.26 329.464H2673.16V407.8H2703.11V329.464H2776.84V301.816H2703.11V178.168C2703.11 170.488 2706.57 166.648 2713.48 166.648H2767.62V139H2702.73C2694.02 139 2686.86 141.816 2681.22 147.448C2675.85 153.08 2673.16 160.248 2673.16 168.952V301.816H2613.26V329.464ZM3079.28 329.464H3148.4V304.12H3153.01C3157.87 314.616 3164.79 322.296 3173.75 327.16C3182.71 332.28 3192.95 334.84 3204.47 334.84C3223.67 334.84 3239.15 328.568 3250.93 316.024C3262.71 303.48 3268.98 285.176 3269.75 261.112L3238.26 256.504C3238.26 274.168 3234.03 286.84 3225.59 294.52C3217.14 302.456 3206.77 306.424 3194.48 306.424C3186.55 306.424 3179.63 304.888 3173.75 301.816C3168.11 298.744 3163.38 294.52 3159.54 289.144C3155.7 283.768 3152.88 277.496 3151.09 270.328C3149.3 263.16 3148.4 255.48 3148.4 247.288V166.648H3196.79V139H3074.67V166.648H3118.45V301.816H3079.28V329.464Z" fill="#1F4F52"/>
</svg>
